<svg xmlns="http://www.w3.org/2000/svg" width="206" height="29.889" viewBox="0 0 206 29.889"><defs><style>.a{fill:#fafafa;}</style></defs><path class="a" d="M9.88,3.531C9.88,2.416,8.7,1.7,6.349,1.425L6.69,0H20.876l-.341,1.425a8.034,8.034,0,0,0-3.469.836,2.958,2.958,0,0,0-1.394,1.827L11.15,23.632a8.419,8.419,0,0,0-.31,2.106,1.334,1.334,0,0,0,.774,1.394,10.375,10.375,0,0,0,3.562.372c2.849,0,4.708-.372,5.606-1.084a21.075,21.075,0,0,0,2.354-2.478c.929-1.115,1.889-2.354,2.88-3.779h1.425l-2.664,8.982H0l.279-1.425a7.97,7.97,0,0,0,3.159-.527A2.643,2.643,0,0,0,4.956,25.3L9.756,4.46A3.837,3.837,0,0,0,9.88,3.531Z" transform="translate(0 0.093)"/><path class="a" d="M112.516,48.085a4.809,4.809,0,0,1-2.819-.805,3.431,3.431,0,0,1-1.394-2.168h-.155a20.736,20.736,0,0,1-2.571,1.951,12.157,12.157,0,0,1-1.92.929,6.032,6.032,0,0,1-2.106.372,6.192,6.192,0,0,1-4.987-2.106A8.809,8.809,0,0,1,94.8,40.4a14.034,14.034,0,0,1,1.611-6.6,13.426,13.426,0,0,1,4.46-5.018,10.619,10.619,0,0,1,6.04-1.889,10.3,10.3,0,0,1,2.973.4,6.939,6.939,0,0,1,2.2,1.022l5.049-1.084.248.279-3.19,13.659a10.756,10.756,0,0,0-.372,2.23,1.969,1.969,0,0,0,.527,1.58,2.827,2.827,0,0,0,1.765.434,6.62,6.62,0,0,0,2.354-.465l-.341,1.549a27.976,27.976,0,0,1-2.973,1.084A6.819,6.819,0,0,1,112.516,48.085ZM111,32.072a3.293,3.293,0,0,0-.867-2.509,3.412,3.412,0,0,0-2.447-.867,4.965,4.965,0,0,0-3.5,1.673,11.7,11.7,0,0,0-2.633,4.429,16.929,16.929,0,0,0-.991,5.668A7.07,7.07,0,0,0,101.4,44.4a2.944,2.944,0,0,0,2.6,1.208c1.3,0,2.788-.805,4.367-2.416Z" transform="translate(-65.438 -18.475)"/><path class="a" d="M226.038-.207A12.1,12.1,0,0,1,232.7,1.342,5.013,5.013,0,0,1,235.02,5.8a8.9,8.9,0,0,1-1.765,5.451,11.645,11.645,0,0,1-4.987,3.686,18.87,18.87,0,0,1-7.155,1.3h-3.221L216,24.354a4.416,4.416,0,0,0-.186,1.208,1.423,1.423,0,0,0,.836,1.27,7.92,7.92,0,0,0,2.911.65l-.341,1.425H205.1l.279-1.425a7.4,7.4,0,0,0,3.159-.558A2.757,2.757,0,0,0,210.056,25l4.8-20.845.124-.9a1.609,1.609,0,0,0-.929-1.332,6.956,6.956,0,0,0-2.664-.805L211.7-.3h14.34Zm2.447,6.257a4.371,4.371,0,0,0-1.3-3.438,5.582,5.582,0,0,0-3.841-1.146h-2.106l-2.973,12.978h1.8a9.526,9.526,0,0,0,4.429-.96,6.615,6.615,0,0,0,2.911-2.911A9.214,9.214,0,0,0,228.484,6.049Z" transform="translate(-141.575 0.3)"/><path class="a" d="M320.539,30.772a4.428,4.428,0,0,1-.96,2.942,3.072,3.072,0,0,1-2.509,1.146,3.174,3.174,0,0,1-2.013-.588,1.8,1.8,0,0,1-.774-1.487,3.8,3.8,0,0,1,.31-1.518c.186-.5.434-1.084.712-1.734a10.2,10.2,0,0,0-5.172,3.562l-3.314,14.65h-5.3l2.911-12.978a13.077,13.077,0,0,0,.341-1.58,8.507,8.507,0,0,0,.155-1.518,2.026,2.026,0,0,0-.4-1.394,2.21,2.21,0,0,0-1.642-.465,7.219,7.219,0,0,0-1.177.155,7.659,7.659,0,0,0-1.208.341l.4-1.611a15.448,15.448,0,0,1,5.513-1.487,4.5,4.5,0,0,1,2.88.805,4.2,4.2,0,0,1,1.27,2.757h.124c1.394-1.3,2.385-2.137,3-2.6a8.879,8.879,0,0,1,1.7-.96,5.045,5.045,0,0,1,1.7-.31,3.464,3.464,0,0,1,2.54.929A4.231,4.231,0,0,1,320.539,30.772Z" transform="translate(-207.427 -18.475)"/><path class="a" d="M388.358,31.491a5.143,5.143,0,0,1-.774,2.819,6.919,6.919,0,0,1-2.261,2.168,16.476,16.476,0,0,1-4,1.673,43.87,43.87,0,0,1-6.69,1.27c.062,4.212,1.611,6.318,4.615,6.318a7.5,7.5,0,0,0,3.717-.9,12,12,0,0,0,3.314-3.1l1.363,1.053a12.9,12.9,0,0,1-4.46,4.119,11.435,11.435,0,0,1-5.575,1.518,8.738,8.738,0,0,1-6.349-2.2,8.181,8.181,0,0,1-2.261-6.1,13.649,13.649,0,0,1,1.673-6.6,12.258,12.258,0,0,1,11-6.535,8.958,8.958,0,0,1,4.956,1.146A3.67,3.67,0,0,1,388.358,31.491Zm-5.234,0a3.471,3.471,0,0,0-.619-2.168,2.136,2.136,0,0,0-1.8-.774,3.749,3.749,0,0,0-2.6,1.208,9.774,9.774,0,0,0-2.168,3.345,18.65,18.65,0,0,0-1.208,4.739,26.4,26.4,0,0,0,4.832-1.084,5.923,5.923,0,0,0,2.044-1.27,4.4,4.4,0,0,0,1.115-1.7A7.057,7.057,0,0,0,383.124,31.491Z" transform="translate(-254.71 -18.544)"/><path class="a" d="M456.262,48.707a4.7,4.7,0,0,1-3-.929,3.608,3.608,0,0,1-1.332-2.54H451.8a16.685,16.685,0,0,1-4.181,2.849,9.46,9.46,0,0,1-3.841.774,4.487,4.487,0,0,1-3.252-1.146,4.058,4.058,0,0,1-1.208-3.066,12.964,12.964,0,0,1,.465-3.159l1.549-6.133a16.375,16.375,0,0,0,.5-2.973,2.256,2.256,0,0,0-.434-1.549,2.332,2.332,0,0,0-1.611-.434,7.927,7.927,0,0,0-2.385.5l.4-1.611a15.433,15.433,0,0,1,5.389-1.487,4.387,4.387,0,0,1,3.066.96,3.321,3.321,0,0,1,1.053,2.633,9.822,9.822,0,0,1-.372,2.726L445.3,40.685a11.274,11.274,0,0,0-.465,2.726c0,1.673.743,2.54,2.23,2.54a5.339,5.339,0,0,0,2.447-.681,10.709,10.709,0,0,0,2.695-1.982l3.5-15.146,5.049-.248.248.279-2.973,12.947a12.423,12.423,0,0,0-.557,2.942A2.045,2.045,0,0,0,458,45.671a2.638,2.638,0,0,0,1.766.434,6.726,6.726,0,0,0,1.27-.155,6.511,6.511,0,0,0,1.084-.341l-.341,1.611c-1.115.434-2.137.805-3.035,1.084A8.41,8.41,0,0,1,456.262,48.707Z" transform="translate(-301.925 -19.097)"/><path class="a" d="M538.372,30.035a2.832,2.832,0,0,1,.929-2.2,3.218,3.218,0,0,1,2.23-.836,2.805,2.805,0,0,1,2.416,1.177,6.9,6.9,0,0,1,.836,3.872,18.737,18.737,0,0,1-1.827,8.022,15.931,15.931,0,0,1-4.8,6.1,10.513,10.513,0,0,1-6.411,2.261,7.611,7.611,0,0,1-5.08-1.58,5.511,5.511,0,0,1-1.858-4.429,10.1,10.1,0,0,1,.372-2.571c.248-.929.527-1.858.836-2.819s.588-1.858.836-2.757a9.188,9.188,0,0,0,.372-2.416,2.22,2.22,0,0,0-.434-1.518,2.248,2.248,0,0,0-1.673-.465,6.962,6.962,0,0,0-2.416.527l.341-1.611a16.6,16.6,0,0,1,5.482-1.549,4.1,4.1,0,0,1,3.1,1.022A3.775,3.775,0,0,1,532.611,31a12.859,12.859,0,0,1-.372,3c-.248,1.022-.527,2.044-.836,3-.31.991-.589,1.92-.836,2.819a8.959,8.959,0,0,0-.372,2.354,3.7,3.7,0,0,0,.929,2.695,3.517,3.517,0,0,0,2.6.929,6.182,6.182,0,0,0,3.593-1.208,8.787,8.787,0,0,0,2.788-3.345,9.866,9.866,0,0,0,1.053-4.491,5.162,5.162,0,0,0-1.425-3.438A5.606,5.606,0,0,1,538.372,30.035Z" transform="translate(-360.805 -18.544)"/><path class="a" d="M621.958,31.491a5.144,5.144,0,0,1-.774,2.819,6.919,6.919,0,0,1-2.261,2.168,16.478,16.478,0,0,1-4,1.673,43.874,43.874,0,0,1-6.69,1.27c.062,4.212,1.611,6.318,4.615,6.318a7.5,7.5,0,0,0,3.717-.9,12,12,0,0,0,3.314-3.1l1.363,1.053a12.9,12.9,0,0,1-4.46,4.119,11.436,11.436,0,0,1-5.575,1.518,8.738,8.738,0,0,1-6.349-2.2,8.181,8.181,0,0,1-2.261-6.1,13.648,13.648,0,0,1,1.672-6.6,12.258,12.258,0,0,1,11-6.535,8.959,8.959,0,0,1,4.956,1.146A3.734,3.734,0,0,1,621.958,31.491Zm-5.265,0a3.47,3.47,0,0,0-.62-2.168,2.136,2.136,0,0,0-1.8-.774,3.749,3.749,0,0,0-2.6,1.208,9.775,9.775,0,0,0-2.168,3.345A18.647,18.647,0,0,0,608.3,37.84a26.4,26.4,0,0,0,4.832-1.084,5.922,5.922,0,0,0,2.044-1.27,4.4,4.4,0,0,0,1.115-1.7A7.057,7.057,0,0,0,616.693,31.491Z" transform="translate(-415.958 -18.544)"/></svg>